<svg width="26" height="26" viewBox="0 0 26 26" fill="none" xmlns="http://www.w3.org/2000/svg">
<path fill-rule="evenodd" clip-rule="evenodd" d="M13.0001 1.59961C6.70418 1.59961 1.6001 6.70369 1.6001 12.9996C1.6001 19.2955 6.70418 24.3996 13.0001 24.3996C19.296 24.3996 24.4001 19.2955 24.4001 12.9996C24.4001 6.70369 19.296 1.59961 13.0001 1.59961ZM3.6001 12.9996C3.6001 7.80826 7.80875 3.59961 13.0001 3.59961C18.1914 3.59961 22.4001 7.80826 22.4001 12.9996C22.4001 14.8907 21.8416 16.6514 20.8806 18.1258C20.5578 17.8777 20.1472 17.5992 19.6426 17.3231C18.2059 16.5368 16.0321 15.7836 12.9992 15.7836C9.96685 15.7836 7.79347 16.5369 6.35707 17.3231C5.8527 17.5992 5.44227 17.8777 5.11959 18.1257C4.15858 16.6514 3.6001 14.8907 3.6001 12.9996ZM6.3839 19.6768C8.08251 21.36 10.4199 22.3996 13.0001 22.3996C15.5802 22.3996 17.9176 21.36 19.6162 19.6768C19.3758 19.4954 19.0661 19.2875 18.6825 19.0776C17.5303 18.447 15.6855 17.7836 12.9992 17.7836C10.3135 17.7836 8.46918 18.447 7.3174 19.0775C6.93383 19.2875 6.62424 19.4953 6.3839 19.6768ZM20.3745 18.8292C20.402 18.7945 20.4292 18.7596 20.4562 18.7244C20.3767 18.7502 20.3453 18.789 20.3745 18.8292ZM12.9992 6.32617C10.7657 6.32617 8.88018 8.07027 8.88018 10.3129C8.88018 12.5555 10.7657 14.2996 12.9992 14.2996C15.2328 14.2996 17.1183 12.5555 17.1183 10.3129C17.1183 8.07027 15.2328 6.32617 12.9992 6.32617ZM10.8802 10.3129C10.8802 9.25582 11.7875 8.32617 12.9992 8.32617C14.2109 8.32617 15.1183 9.25582 15.1183 10.3129C15.1183 11.3699 14.2109 12.2996 12.9992 12.2996C11.7875 12.2996 10.8802 11.3699 10.8802 10.3129Z" fill="#B1B1B1"/>
</svg>
