<svg width="16" height="16" viewBox="0 0 16 16" fill="none" xmlns="http://www.w3.org/2000/svg">
<path fill-rule="evenodd" clip-rule="evenodd" d="M2.51429 7.66602C2.79832 7.66602 3.02857 7.88987 3.02857 8.16602V12.166C3.02857 12.387 3.11888 12.599 3.27962 12.7553C3.44037 12.9116 3.65839 12.9993 3.88571 12.9993H12.1143C12.3416 12.9993 12.5596 12.9116 12.7204 12.7553C12.8811 12.599 12.9714 12.387 12.9714 12.166V8.16602C12.9714 7.88987 13.2017 7.66602 13.4857 7.66602C13.7697 7.66602 14 7.88987 14 8.16602V12.166C14 12.6522 13.8013 13.1186 13.4477 13.4624C13.094 13.8062 12.6144 13.9993 12.1143 13.9993H3.88571C3.38559 13.9993 2.90595 13.8062 2.55231 13.4624C2.19867 13.1186 2 12.6522 2 12.166V8.16602C2 7.88987 2.23025 7.66602 2.51429 7.66602Z" fill="white"/>
<path fill-rule="evenodd" clip-rule="evenodd" d="M7.63657 1.14645C7.83741 0.951184 8.16304 0.951184 8.36388 1.14645L10.7639 3.47978C10.9647 3.67504 10.9647 3.99162 10.7639 4.18689C10.563 4.38215 10.2374 4.38215 10.0366 4.18689L8.51451 2.70711V9.5C8.51451 9.77614 8.28426 10 8.00022 10C7.71619 10 7.48594 9.77614 7.48594 9.5V2.70711L5.96388 4.18689C5.76304 4.38215 5.43741 4.38215 5.23657 4.18689C5.03573 3.99162 5.03573 3.67504 5.23657 3.47978L7.63657 1.14645Z" fill="white"/>
</svg>
