<svg width="16" height="16" viewBox="0 0 16 16" fill="none" xmlns="http://www.w3.org/2000/svg">
<path fill-rule="evenodd" clip-rule="evenodd" d="M5.19237 5.94213C5.19237 4.33031 6.4209 2.9707 8.00014 2.9707C9.57938 2.9707 10.8079 4.33031 10.8079 5.94213C10.8079 6.90956 10.3653 7.78613 9.66998 8.33239C11.38 9.04476 12.5716 10.8183 12.5716 12.8569V13.485C12.5716 13.7375 12.3669 13.9421 12.1144 13.9421C11.862 13.9421 11.6573 13.7375 11.6573 13.485V12.8569C11.6573 10.6497 9.99121 8.91356 8.00014 8.91356C6.00907 8.91356 4.343 10.6497 4.343 12.8569V13.485C4.343 13.7375 4.13833 13.9421 3.88585 13.9421C3.63338 13.9421 3.42871 13.7375 3.42871 13.485V12.8569C3.42871 10.8183 4.62028 9.04476 6.3303 8.33239C5.63495 7.78613 5.19237 6.90956 5.19237 5.94213ZM8.00014 3.88499C6.98281 3.88499 6.10665 4.77635 6.10665 5.94213C6.10665 7.10791 6.98281 7.99927 8.00014 7.99927C9.01747 7.99927 9.89363 7.10791 9.89363 5.94213C9.89363 4.77635 9.01747 3.88499 8.00014 3.88499Z" fill="black"/>
</svg>
