<svg width="24" height="24" viewBox="0 0 24 24" fill="none" xmlns="http://www.w3.org/2000/svg">
<path fill-rule="evenodd" clip-rule="evenodd" d="M7 1.25C7.41421 1.25 7.75 1.58579 7.75 2V6C7.75 6.41421 7.41421 6.75 7 6.75C6.58579 6.75 6.25 6.41421 6.25 6V4.75H5C4.66848 4.75 4.35054 4.8817 4.11612 5.11612C3.8817 5.35054 3.75 5.66848 3.75 6V9.25H20.25V6C20.25 5.66848 20.1183 5.35054 19.8839 5.11612C19.6495 4.8817 19.3315 4.75 19 4.75H18.5C18.0858 4.75 17.75 4.41421 17.75 4C17.75 3.58579 18.0858 3.25 18.5 3.25H19C19.7293 3.25 20.4288 3.53973 20.9445 4.05546C21.4603 4.57118 21.75 5.27065 21.75 6V19C21.75 19.7293 21.4603 20.4288 20.9445 20.9445C20.4288 21.4603 19.7293 21.75 19 21.75H5C4.27065 21.75 3.57118 21.4603 3.05546 20.9445C2.53973 20.4288 2.25 19.7293 2.25 19V6C2.25 5.27065 2.53973 4.57118 3.05546 4.05546C3.57118 3.53973 4.27065 3.25 5 3.25H6.25V2C6.25 1.58579 6.58579 1.25 7 1.25ZM3.75 10.75V19C3.75 19.3315 3.8817 19.6495 4.11612 19.8839C4.35054 20.1183 4.66848 20.25 5 20.25H19C19.3315 20.25 19.6495 20.1183 19.8839 19.8839C20.1183 19.6495 20.25 19.3315 20.25 19V10.75H3.75ZM15 1.25C15.4142 1.25 15.75 1.58579 15.75 2V6C15.75 6.41421 15.4142 6.75 15 6.75C14.5858 6.75 14.25 6.41421 14.25 6V4.75H10.5C10.0858 4.75 9.75 4.41421 9.75 4C9.75 3.58579 10.0858 3.25 10.5 3.25H14.25V2C14.25 1.58579 14.5858 1.25 15 1.25Z" fill="black"/>
</svg>
