<svg width="16" height="16" viewBox="0 0 16 16" fill="none" xmlns="http://www.w3.org/2000/svg">
<path fill-rule="evenodd" clip-rule="evenodd" d="M8.0001 2.5139C4.97042 2.5139 2.51438 4.96993 2.51438 7.99961C2.51438 11.0293 4.97042 13.4853 8.0001 13.4853C11.0298 13.4853 13.4858 11.0293 13.4858 7.99961C13.4858 4.96993 11.0298 2.5139 8.0001 2.5139ZM1.6001 7.99961C1.6001 4.46499 4.46548 1.59961 8.0001 1.59961C11.5347 1.59961 14.4001 4.46499 14.4001 7.99961C14.4001 11.5342 11.5347 14.3996 8.0001 14.3996C4.46548 14.3996 1.6001 11.5342 1.6001 7.99961Z" fill="#E14627"/>
<path fill-rule="evenodd" clip-rule="evenodd" d="M7.99992 9.45725C6.46374 9.45725 5.25706 10.6375 5.25706 12.0474V12.6573C5.25706 12.9097 5.05239 13.1144 4.79992 13.1144C4.54744 13.1144 4.34277 12.9097 4.34277 12.6573V12.0474C4.34277 10.0909 6.00147 8.54297 7.99992 8.54297C9.99836 8.54297 11.6571 10.0909 11.6571 12.0474V12.6573C11.6571 12.9097 11.4524 13.1144 11.1999 13.1144C10.9474 13.1144 10.7428 12.9097 10.7428 12.6573V12.0474C10.7428 10.6375 9.5361 9.45725 7.99992 9.45725Z" fill="#E14627"/>
<path fill-rule="evenodd" clip-rule="evenodd" d="M5.71436 7.17048C5.71436 5.90772 6.73731 4.88477 8.00007 4.88477C9.26283 4.88477 10.2858 5.90772 10.2858 7.17048C10.2858 8.43324 9.26283 9.45619 8.00007 9.45619C6.73731 9.45619 5.71436 8.43324 5.71436 7.17048ZM8.00007 5.79905C7.24226 5.79905 6.62864 6.41267 6.62864 7.17048C6.62864 7.92829 7.24226 8.54191 8.00007 8.54191C8.75788 8.54191 9.3715 7.92829 9.3715 7.17048C9.3715 6.41267 8.75788 5.79905 8.00007 5.79905Z" fill="#E14627"/>
</svg>
