<svg width="16" height="16" viewBox="0 0 16 16" fill="none" xmlns="http://www.w3.org/2000/svg">
<path fill-rule="evenodd" clip-rule="evenodd" d="M5.8297 6.69945C5.35751 6.69945 4.97226 6.94952 4.72411 7.27222C4.47611 7.59473 4.33929 8.01537 4.33929 8.45712C4.33929 8.89887 4.47611 9.31951 4.72411 9.64202C4.97226 9.96472 5.35751 10.2148 5.8297 10.2148C6.3019 10.2148 6.68715 9.96472 6.93529 9.64202C7.1833 9.31951 7.32012 8.89887 7.32012 8.45712C7.32012 8.01537 7.1833 7.59473 6.93529 7.27222C6.68715 6.94952 6.3019 6.69945 5.8297 6.69945ZM5.4571 8.45712C5.4571 8.22853 5.52894 8.04308 5.61814 7.92709C5.7072 7.81127 5.7877 7.79042 5.8297 7.79042C5.8717 7.79042 5.95221 7.81127 6.04127 7.92709C6.13047 8.04308 6.20231 8.22853 6.20231 8.45712C6.20231 8.68571 6.13047 8.87116 6.04127 8.98715C5.95221 9.10297 5.8717 9.12382 5.8297 9.12382C5.7877 9.12382 5.7072 9.10297 5.61814 8.98715C5.52894 8.87116 5.4571 8.68571 5.4571 8.45712Z" fill="#404EED"/>
<path fill-rule="evenodd" clip-rule="evenodd" d="M10.1768 6.69945C9.70456 6.69945 9.31931 6.94952 9.07116 7.27222C8.82315 7.59473 8.68634 8.01537 8.68634 8.45712C8.68634 8.89887 8.82315 9.31951 9.07116 9.64202C9.31931 9.96472 9.70456 10.2148 10.1768 10.2148C10.6489 10.2148 11.0342 9.96472 11.2823 9.64202C11.5303 9.31951 11.6672 8.89887 11.6672 8.45712C11.6672 8.01537 11.5303 7.59473 11.2823 7.27222C11.0342 6.94952 10.6489 6.69945 10.1768 6.69945ZM9.80415 8.45712C9.80415 8.22853 9.87599 8.04308 9.96519 7.92709C10.0542 7.81127 10.1348 7.79042 10.1768 7.79042C10.2188 7.79042 10.2993 7.81127 10.3883 7.92709C10.4775 8.04308 10.5494 8.22853 10.5494 8.45712C10.5494 8.68571 10.4775 8.87116 10.3883 8.98715C10.2993 9.10297 10.2188 9.12382 10.1768 9.12382C10.1348 9.12382 10.0542 9.10297 9.96519 8.98715C9.87599 8.87116 9.80415 8.68571 9.80415 8.45712Z" fill="#404EED"/>
<path fill-rule="evenodd" clip-rule="evenodd" d="M6.64862 3.37253C6.53709 3.14741 6.28301 3.02513 6.03212 3.07583L6.0298 3.0763L6.02523 3.07724L6.00956 3.08052L5.95346 3.09268C5.9056 3.10328 5.83737 3.1189 5.75308 3.13955C5.58481 3.18076 5.35082 3.24244 5.08592 3.32479C4.56764 3.4859 3.885 3.74002 3.35135 4.09931C2.04619 4.97867 1.55965 6.68196 1.36625 8.0774C1.19897 9.28443 1.23276 10.4277 1.24725 10.918C1.2499 11.0079 1.25191 11.0759 1.25191 11.1183C1.25191 11.2159 1.2788 11.3118 1.32975 11.3959C1.82763 12.2175 2.80547 12.8236 3.56585 13.207C3.9603 13.406 4.32619 13.5594 4.59333 13.6633C4.72725 13.7153 4.83722 13.7552 4.91464 13.7824C4.95337 13.796 4.98402 13.8064 5.00551 13.8136L5.03076 13.822L5.038 13.8244L5.04152 13.8255C5.30767 13.9111 5.59761 13.7911 5.71959 13.5449L6.22128 12.5323C6.88871 12.7326 7.53232 12.8369 8.1847 12.8369C8.76777 12.8369 9.34385 12.7535 9.93619 12.5928L10.3958 13.5449C10.5146 13.7911 10.7971 13.9111 11.0565 13.8255L11.0599 13.8244L11.0669 13.822L11.0915 13.8136C11.1125 13.8064 11.1423 13.796 11.1801 13.7824C11.2555 13.7552 11.3627 13.7153 11.4931 13.6633C11.7534 13.5594 12.1099 13.406 12.4943 13.207C13.2351 12.8236 14.1879 12.2175 14.673 11.3959C14.7226 11.3118 14.7488 11.2159 14.7488 11.1183C14.7488 11.0759 14.7508 11.0079 14.7534 10.918C14.7675 10.4277 14.8004 9.28443 14.6374 8.0774C14.449 6.68196 13.9749 4.97867 12.7033 4.09931C12.1833 3.74002 11.5182 3.4859 11.0132 3.32479C10.7551 3.24244 10.5271 3.18076 10.3631 3.13955C10.281 3.1189 10.2145 3.10328 10.1679 3.09268L10.1132 3.08052L10.098 3.07724L10.0935 3.0763L10.0913 3.07583C9.84681 3.02513 9.59925 3.14741 9.49058 3.37253L9.03541 4.31547H8.17046C8.14245 4.31547 8.11494 4.31759 8.08807 4.32168C8.06049 4.31759 8.03225 4.31547 8.0035 4.31547H7.11578L6.64862 3.37253ZM4.01441 11.6C4.41416 11.808 4.7976 11.9913 5.1696 12.1489L4.93539 12.6216C4.70104 12.5286 4.39939 12.3994 4.07898 12.2378C3.39451 11.8926 2.72006 11.4463 2.36681 10.9538L2.36425 10.8599C2.3498 10.3403 2.32151 9.32371 2.47398 8.22364C2.66311 6.85902 3.10556 5.59071 3.98624 4.99722C4.38162 4.73103 4.93742 4.51592 5.42517 4.36429C5.57712 4.31706 5.71802 4.27732 5.83931 4.24514L6.26204 5.09841C6.35536 5.28677 6.55084 5.40644 6.76521 5.40644H8.0035C8.03225 5.40644 8.06049 5.40432 8.08807 5.40024C8.11494 5.40432 8.14245 5.40644 8.17046 5.40644H9.37698C9.58585 5.40644 9.77632 5.28677 9.86724 5.09841L10.2791 4.24514C10.3973 4.27732 10.5346 4.31706 10.6826 4.36429C11.1579 4.51592 11.6994 4.73103 12.0847 4.99722C12.9427 5.59071 13.3738 6.85902 13.5581 8.22364C13.7067 9.32371 13.6791 10.3403 13.665 10.8599L13.6625 10.9538C13.3184 11.4463 12.6612 11.8926 11.9943 12.2378C11.6821 12.3994 11.3882 12.5286 11.1599 12.6216L10.9761 12.241C11.4178 12.0643 11.8746 11.8499 12.355 11.6C12.6274 11.4583 12.7305 11.1279 12.5853 10.862C12.4401 10.5962 12.1016 10.4955 11.8292 10.6373C10.3626 11.4003 9.25533 11.7459 8.1847 11.7459C7.11406 11.7459 6.00682 11.4003 4.54023 10.6373C4.26784 10.4955 3.92931 10.5962 3.78411 10.862C3.63891 11.1279 3.74202 11.4583 4.01441 11.6Z" fill="#404EED"/>
<path fill-rule="evenodd" clip-rule="evenodd" d="M4.54787 13.6455C4.28541 13.5423 3.93833 13.3949 3.56578 13.207C3.33654 13.0914 3.08754 12.9556 2.83789 12.7997L3.60107 11.9779C3.75708 12.0696 3.91771 12.1565 4.0789 12.2378C4.39931 12.3994 4.70096 12.5286 4.93531 12.6216L5.16952 12.1489C4.79752 11.9913 4.41408 11.808 4.01433 11.6C4.00031 11.5927 3.98674 11.5849 3.97363 11.5766L4.7473 10.7434C5.4113 11.0786 6.00145 11.3249 6.54986 11.4895L4.54787 13.6455ZM13.1061 4.42894C12.9816 4.30955 12.8475 4.19912 12.7032 4.09931C12.3337 3.84397 11.8908 3.64175 11.4842 3.48828L10.6735 4.3614C10.6765 4.36236 10.6795 4.36333 10.6826 4.3643C11.1578 4.51592 11.6993 4.73103 12.0846 4.99722C12.1833 5.06552 12.2764 5.14274 12.3641 5.22803L13.1061 4.42894ZM10.8337 6.87619C10.6427 6.76659 10.4213 6.69945 10.1767 6.69945C9.70448 6.69945 9.31923 6.94953 9.07108 7.27222C8.82308 7.59473 8.68626 8.01537 8.68626 8.45712C8.68626 8.67458 8.71941 8.88693 8.78266 9.08497L10.8337 6.87619ZM5.3303 10.1156L7.27463 8.02171C7.30458 8.16251 7.32004 8.30862 7.32004 8.45712C7.32004 8.89887 7.18322 9.31952 6.93521 9.64202C6.68707 9.96472 6.30182 10.2148 5.82962 10.2148C5.64962 10.2148 5.48226 10.1785 5.3303 10.1156Z" fill="#404EED"/>
<path fill-rule="evenodd" clip-rule="evenodd" d="M4.54787 13.6455C4.28541 13.5423 3.93833 13.3949 3.56578 13.207C3.33654 13.0914 3.08754 12.9556 2.83789 12.7997L3.60107 11.9779C3.75708 12.0696 3.91771 12.1565 4.0789 12.2378C4.39931 12.3994 4.70096 12.5286 4.93531 12.6216L5.16952 12.1489C4.79752 11.9913 4.41408 11.808 4.01433 11.6C4.00031 11.5927 3.98674 11.5849 3.97363 11.5766L4.7473 10.7434C5.4113 11.0786 6.00145 11.3249 6.54986 11.4895L4.54787 13.6455ZM13.1061 4.42894C12.9816 4.30955 12.8475 4.19912 12.7032 4.09931C12.3337 3.84397 11.8908 3.64175 11.4842 3.48828L10.6735 4.3614C10.6765 4.36236 10.6795 4.36333 10.6826 4.3643C11.1578 4.51592 11.6993 4.73103 12.0846 4.99722C12.1833 5.06552 12.2764 5.14274 12.3641 5.22803L13.1061 4.42894ZM10.8337 6.87619C10.6427 6.76659 10.4213 6.69945 10.1767 6.69945C9.70448 6.69945 9.31923 6.94953 9.07108 7.27222C8.82308 7.59473 8.68626 8.01537 8.68626 8.45712C8.68626 8.67458 8.71941 8.88693 8.78266 9.08497L10.8337 6.87619ZM5.3303 10.1156L7.27463 8.02171C7.30458 8.16251 7.32004 8.30862 7.32004 8.45712C7.32004 8.89887 7.18322 9.31952 6.93521 9.64202C6.68707 9.96472 6.30182 10.2148 5.82962 10.2148C5.64962 10.2148 5.48226 10.1785 5.3303 10.1156Z" fill="black" fill-opacity="0.5"/>
<path fill-rule="evenodd" clip-rule="evenodd" d="M14.1077 0.929854C14.4777 1.27344 14.4991 1.85194 14.1555 2.22196L2.26982 15.022C1.92623 15.392 1.34773 15.4134 0.97771 15.0698C0.607689 14.7262 0.586263 14.1477 0.929854 13.7777L12.8156 0.97771C13.1592 0.607689 13.7377 0.586263 14.1077 0.929854Z" fill="#404EED"/>
</svg>
