<svg width="10" height="10" viewBox="0 0 10 10" fill="none" xmlns="http://www.w3.org/2000/svg">
<g clip-path="url(#clip0_533_3)">
<rect width="10" height="10" fill="white"/>
<path fill-rule="evenodd" clip-rule="evenodd" d="M6.13816 3.5C6.13816 3.22386 6.36201 3 6.63816 3C6.81255 3 6.98635 3.01851 7.15555 3.0543V3.0543C8.18853 3.27213 9.00163 4.1478 9.00163 5.23913C9.00163 6.50825 7.90975 7.47826 6.63816 7.47826H6.01729C4.73313 7.47826 3.65381 6.39829 3.65381 5.23913C3.65381 4.96299 3.87767 4.73913 4.15381 4.73913C4.42995 4.73913 4.65381 4.96299 4.65381 5.23913C4.65381 5.81389 5.25275 6.47826 6.01729 6.47826H6.63816C7.42395 6.47826 8.00163 5.89175 8.00163 5.23913C8.00163 4.67495 7.57494 4.16462 6.94899 4.03274C6.84688 4.01114 6.74203 4 6.63816 4C6.36201 4 6.13816 3.77614 6.13816 3.5Z" fill="#2271B1"/>
<path fill-rule="evenodd" clip-rule="evenodd" d="M3.87 6.97826C3.87 7.2544 3.64563 7.47826 3.36886 7.47826C3.19407 7.47826 3.01987 7.45975 2.85029 7.42396C1.81495 7.20614 1 6.33046 1 5.23913C1 3.97001 2.09437 3 3.36886 3H3.99114C5.27822 3 6.36 4.07997 6.36 5.23913C6.36 5.51527 6.13563 5.73913 5.85886 5.73913C5.58209 5.73913 5.35772 5.51527 5.35772 5.23913C5.35772 4.66437 4.75742 4 3.99114 4H3.36886C2.58127 4 2.00228 4.58651 2.00228 5.23913C2.00228 5.80332 2.42994 6.31364 3.05732 6.44552C3.15966 6.46712 3.26475 6.47826 3.36886 6.47826C3.64563 6.47826 3.87 6.70212 3.87 6.97826Z" fill="#2271B1"/>
</g>
<defs>
<clipPath id="clip0_533_3">
<rect width="10" height="10" fill="white"/>
</clipPath>
</defs>
</svg>
