<svg width="24" height="72" viewBox="0 0 24 72" fill="none" xmlns="http://www.w3.org/2000/svg">
<path fill-rule="evenodd" clip-rule="evenodd" d="M8.64145 8.64164C8.93429 8.34869 9.40917 8.34861 9.70211 8.64145L12.0008 10.9393L14.2985 8.64154C14.5914 8.34865 15.0663 8.34865 15.3592 8.64154C15.6521 8.93444 15.6521 9.40931 15.3592 9.7022L13.0615 11.9999L15.3592 14.2975C15.6521 14.5904 15.6521 15.0653 15.3592 15.3582C15.0663 15.6511 14.5914 15.6511 14.2985 15.3582L12.0008 13.0604L9.70211 15.3583C9.40917 15.6511 8.93429 15.6511 8.64145 15.3581C8.34861 15.0652 8.34869 14.5903 8.64164 14.2975L10.94 11.9999L8.64164 9.7023C8.34869 9.40946 8.34861 8.93458 8.64145 8.64164Z" fill="black"/>
<path fill-rule="evenodd" clip-rule="evenodd" d="M1.25 12C1.25 6.06279 6.06279 1.25 12 1.25C17.9372 1.25 22.75 6.06279 22.75 12C22.75 17.9372 17.9372 22.75 12 22.75C6.06279 22.75 1.25 17.9372 1.25 12ZM12 2.75C6.89121 2.75 2.75 6.89121 2.75 12C2.75 17.1088 6.89121 21.25 12 21.25C17.1088 21.25 21.25 17.1088 21.25 12C21.25 6.89121 17.1088 2.75 12 2.75Z" fill="black"/>
<path fill-rule="evenodd" clip-rule="evenodd" d="M8.64145 32.6416C8.93429 32.3487 9.40917 32.3486 9.70211 32.6415L12.0008 34.9393L14.2985 32.6415C14.5914 32.3487 15.0663 32.3487 15.3592 32.6415C15.6521 32.9344 15.6521 33.4093 15.3592 33.7022L13.0615 35.9999L15.3592 38.2975C15.6521 38.5904 15.6521 39.0653 15.3592 39.3582C15.0663 39.6511 14.5914 39.6511 14.2985 39.3582L12.0008 37.0604L9.70211 39.3583C9.40917 39.6511 8.93429 39.6511 8.64145 39.3581C8.34861 39.0652 8.34869 38.5903 8.64164 38.2975L10.94 35.9999L8.64164 33.7023C8.34869 33.4095 8.34861 32.9346 8.64145 32.6416Z" fill="black"/>
<path fill-rule="evenodd" clip-rule="evenodd" d="M1.25 36C1.25 30.0628 6.06279 25.25 12 25.25C17.9372 25.25 22.75 30.0628 22.75 36C22.75 41.9372 17.9372 46.75 12 46.75C6.06279 46.75 1.25 41.9372 1.25 36ZM12 26.75C6.89121 26.75 2.75 30.8912 2.75 36C2.75 41.1088 6.89121 45.25 12 45.25C17.1088 45.25 21.25 41.1088 21.25 36C21.25 30.8912 17.1088 26.75 12 26.75Z" fill="#E14627"/>
<path fill-rule="evenodd" clip-rule="evenodd" d="M8.64145 56.6416C8.93429 56.3487 9.40917 56.3486 9.70211 56.6415L12.0008 58.9393L14.2985 56.6415C14.5914 56.3487 15.0663 56.3487 15.3592 56.6415C15.6521 56.9344 15.6521 57.4093 15.3592 57.7022L13.0615 59.9999L15.3592 62.2975C15.6521 62.5904 15.6521 63.0653 15.3592 63.3582C15.0663 63.6511 14.5914 63.6511 14.2985 63.3582L12.0008 61.0604L9.70211 63.3583C9.40917 63.6511 8.93429 63.6511 8.64145 63.3581C8.34861 63.0652 8.34869 62.5903 8.64164 62.2975L10.94 59.9999L8.64164 57.7023C8.34869 57.4095 8.34861 56.9346 8.64145 56.6416Z" fill="#E14627"/>
<path fill-rule="evenodd" clip-rule="evenodd" d="M1.25 60C1.25 54.0628 6.06279 49.25 12 49.25C17.9372 49.25 22.75 54.0628 22.75 60C22.75 65.9372 17.9372 70.75 12 70.75C6.06279 70.75 1.25 65.9372 1.25 60ZM12 50.75C6.89121 50.75 2.75 54.8912 2.75 60C2.75 65.1088 6.89121 69.25 12 69.25C17.1088 69.25 21.25 65.1088 21.25 60C21.25 54.8912 17.1088 50.75 12 50.75Z" fill="black"/>
</svg>
