<svg width="12" height="12" viewBox="0 0 12 12" fill="none" xmlns="http://www.w3.org/2000/svg">
<path fill-rule="evenodd" clip-rule="evenodd" d="M5.03065 2.27083C4.95083 2.10575 4.76899 2.01609 4.58943 2.05326L4.58777 2.05361L4.5845 2.0543L4.57328 2.0567L4.53313 2.06562C4.49888 2.07339 4.45005 2.08485 4.38972 2.09999C4.26929 2.13021 4.10183 2.17544 3.91225 2.23582C3.54133 2.35397 3.05277 2.54031 2.67084 2.80378C1.73676 3.44861 1.38856 4.69762 1.25015 5.72089C1.13042 6.606 1.1546 7.44438 1.16497 7.80391C1.16688 7.86985 1.16831 7.91967 1.16831 7.95073C1.16831 8.02237 1.18755 8.0927 1.22402 8.15436C1.58034 8.75683 2.28017 9.20125 2.82436 9.48243C3.10666 9.6283 3.36852 9.74085 3.55971 9.81698C3.65555 9.85514 3.73426 9.8844 3.78967 9.90434C3.81739 9.91431 3.83932 9.92197 3.8547 9.92725L3.87277 9.93341L3.87795 9.93514L3.88047 9.93598C4.07095 9.99874 4.27846 9.91074 4.36576 9.73019L4.72488 8.98747C5.20257 9.13435 5.66321 9.21086 6.13012 9.21086C6.54733 9.21086 6.95955 9.14977 7.38339 9.03197L7.71234 9.73019C7.7974 9.91074 7.99958 9.99874 8.18517 9.93598L8.18763 9.93514L8.19268 9.93341L8.21029 9.92725C8.22527 9.92197 8.24664 9.91431 8.27365 9.90434C8.32764 9.8844 8.40432 9.85514 8.4977 9.81698C8.68399 9.74085 8.93913 9.6283 9.21419 9.48243C9.74442 9.20125 10.4263 8.75683 10.7735 8.15436C10.809 8.0927 10.8278 8.02237 10.8278 7.95073C10.8278 7.91967 10.8292 7.86985 10.831 7.80391C10.8411 7.44438 10.8647 6.606 10.748 5.72089C10.6132 4.69762 10.2739 3.44861 9.36377 2.80378C8.99164 2.54031 8.51562 2.35397 8.15421 2.23582C7.96949 2.17544 7.80633 2.13021 7.68899 2.09999C7.63021 2.08485 7.58263 2.07339 7.54926 2.06562L7.51014 2.0567L7.49921 2.0543L7.49603 2.05361L7.4944 2.05326C7.31946 2.01609 7.14228 2.10575 7.06451 2.27083L6.73875 2.96229H6.11972C6.09969 2.96229 6.08001 2.96384 6.06079 2.96683C6.04107 2.96384 6.02087 2.96229 6.00031 2.96229H5.36499L5.03065 2.27083ZM3.14551 8.30384C3.43159 8.45634 3.70599 8.5908 3.97222 8.70632L3.80451 9.05315C3.63679 8.98494 3.42091 8.89019 3.1916 8.7717C2.70174 8.51859 2.21904 8.19132 1.96623 7.83013L1.96439 7.76132C1.95405 7.3803 1.93381 6.63481 2.04293 5.82813C2.17828 4.82746 2.49494 3.89741 3.12523 3.46221C3.40819 3.26701 3.80597 3.10928 4.15504 2.99809C4.26379 2.96345 4.36463 2.93431 4.45144 2.91071L4.75398 3.53641C4.82076 3.67454 4.96067 3.76229 5.11409 3.76229H6.00031C6.02087 3.76229 6.04107 3.76074 6.06079 3.75775C6.08001 3.76074 6.09969 3.76229 6.11972 3.76229H6.9832C7.13269 3.76229 7.26901 3.67454 7.33408 3.53641L7.62886 2.91071C7.71344 2.93431 7.81169 2.96345 7.91765 2.99809C8.25777 3.10928 8.64534 3.26701 8.92104 3.46221C9.53516 3.89741 9.84369 4.82746 9.97558 5.82813C10.0819 6.63481 10.0622 7.3803 10.0521 7.76132L10.0503 7.83013C9.80398 8.19132 9.33367 8.51859 8.85638 8.7717C8.63295 8.89019 8.4226 8.98494 8.25918 9.05315L8.12766 8.77399C8.44386 8.64439 8.77086 8.48714 9.11472 8.30384C9.30967 8.19992 9.38346 7.95765 9.27954 7.7627C9.17562 7.56775 8.93335 7.49396 8.7384 7.59788C7.68879 8.15738 6.89635 8.41086 6.13012 8.41086C5.36388 8.41086 4.57145 8.15738 3.52183 7.59788C3.32689 7.49396 3.08461 7.56775 2.98069 7.7627C2.87677 7.95765 2.95057 8.19992 3.14551 8.30384ZM4.17793 5.99983C4.17793 5.8322 4.22934 5.69622 4.29318 5.61115C4.35692 5.52623 4.41454 5.51094 4.4446 5.51094C4.47465 5.51094 4.53227 5.52623 4.59601 5.61115C4.65985 5.69622 4.71126 5.8322 4.71126 5.99983C4.71126 6.16745 4.65985 6.30344 4.59601 6.3885C4.53227 6.47342 4.47465 6.48872 4.4446 6.48872C4.41454 6.48872 4.35692 6.47342 4.29318 6.3885C4.22934 6.30344 4.17793 6.16745 4.17793 5.99983ZM4.4446 4.71094C4.10665 4.71094 3.83094 4.89431 3.65334 5.13094C3.47585 5.36744 3.37793 5.67589 3.37793 5.99983C3.37793 6.32376 3.47585 6.63222 3.65334 6.86871C3.83094 7.10534 4.10665 7.28872 4.4446 7.28872C4.78254 7.28872 5.05826 7.10534 5.23585 6.86871C5.41334 6.63222 5.51126 6.32376 5.51126 5.99983C5.51126 5.67589 5.41334 5.36744 5.23585 5.13094C5.05826 4.89431 4.78254 4.71094 4.4446 4.71094ZM7.28904 5.99983C7.28904 5.8322 7.34046 5.69622 7.40429 5.61115C7.46803 5.52623 7.52565 5.51094 7.55571 5.51094C7.58577 5.51094 7.64338 5.52623 7.70712 5.61115C7.77096 5.69622 7.82237 5.8322 7.82237 5.99983C7.82237 6.16745 7.77096 6.30344 7.70712 6.3885C7.64338 6.47342 7.58577 6.48872 7.55571 6.48872C7.52565 6.48872 7.46803 6.47342 7.40429 6.3885C7.34046 6.30344 7.28904 6.16745 7.28904 5.99983ZM7.55571 4.71094C7.21777 4.71094 6.94205 4.89431 6.76445 5.13094C6.58696 5.36744 6.48904 5.67589 6.48904 5.99983C6.48904 6.32376 6.58696 6.63222 6.76445 6.86871C6.94205 7.10534 7.21777 7.28872 7.55571 7.28872C7.89365 7.28872 8.16937 7.10534 8.34696 6.86871C8.52446 6.63222 8.62237 6.32376 8.62237 5.99983C8.62237 5.67589 8.52446 5.36744 8.34696 5.13094C8.16937 4.89431 7.89365 4.71094 7.55571 4.71094Z" fill="black"/>
</svg>
