<svg width="16" height="16" viewBox="0 0 16 16" fill="none" xmlns="http://www.w3.org/2000/svg">
<path fill-rule="evenodd" clip-rule="evenodd" d="M7.99988 4.98242C8.25235 4.98242 8.45702 5.18709 8.45702 5.43956V9.45592L9.91663 7.99632C10.0952 7.81779 10.3846 7.81779 10.5631 7.99632C10.7417 8.17484 10.7417 8.46429 10.5631 8.64281L8.32313 10.8828C8.1446 11.0613 7.85515 11.0613 7.67663 10.8828L5.43663 8.64281C5.2581 8.46429 5.2581 8.17484 5.43663 7.99632C5.61515 7.81779 5.9046 7.81779 6.08313 7.99632L7.54273 9.45592V5.43956C7.54273 5.18709 7.7474 4.98242 7.99988 4.98242Z" fill="black"/>
<path fill-rule="evenodd" clip-rule="evenodd" d="M1.14307 7.99972C1.14307 4.21262 4.21311 1.14258 8.00021 1.14258C11.7873 1.14258 14.8574 4.21262 14.8574 7.99972C14.8574 11.7868 11.7873 14.8569 8.00021 14.8569C4.21311 14.8569 1.14307 11.7868 1.14307 7.99972ZM8.00021 2.05686C4.71805 2.05686 2.05735 4.71757 2.05735 7.99972C2.05735 11.2819 4.71805 13.9426 8.00021 13.9426C11.2824 13.9426 13.9431 11.2819 13.9431 7.99972C13.9431 4.71757 11.2824 2.05686 8.00021 2.05686Z" fill="#E14627"/>
</svg>
