<svg width="200" height="200" viewBox="0 0 200 200" fill="none" xmlns="http://www.w3.org/2000/svg">
<g clip-path="url(#clip0_604_26)">
<path fill-rule="evenodd" clip-rule="evenodd" d="M0 0V100V200H100H200V100V0H100H0ZM190.268 9.73242H9.73242V190.268H190.268V9.73242Z" fill="#3C434A"/>
<path d="M34.5962 99.9987V50.7383H49.7618C66.5045 50.7383 67.4167 50.7568 71.0067 51.16C78.4224 51.9926 84.555 54.109 88.9224 57.3427C94.2186 61.2641 97.3519 66.8157 98.4063 74.1462C98.8468 77.2086 98.9082 81.0141 98.5661 84.0498C97.9143 89.8331 95.8919 94.9069 92.5681 99.098C90.5847 101.599 87.9431 104.013 85.159 105.869C84.7876 106.117 84.474 106.327 84.4623 106.337C84.4462 106.35 105.927 146.391 107.238 148.793L107.493 149.259H93.8909H80.2888L71.7349 130.915L63.1809 112.571L61.1112 112.554L59.0413 112.537V130.898V149.259H46.8188H34.5962V99.9987ZM57.3725 93.6965C57.4984 93.6615 59.2441 92.6772 61.2518 91.509C63.8599 89.9915 64.993 89.3655 65.2203 89.3168C65.8372 89.1845 65.9334 89.2299 69.8487 91.5049C71.8477 92.6664 73.5947 93.6523 73.7309 93.6958C73.8672 93.7394 74.1629 93.7632 74.3889 93.7488C74.7126 93.7282 74.8575 93.6824 75.0742 93.5323C75.4633 93.2627 75.7027 92.772 75.7027 92.2439C75.7027 91.9703 75.4252 90.5622 74.8274 87.8021C74.1437 84.6454 73.9598 83.6956 73.9872 83.463C74.0677 82.7784 74.0708 82.7751 77.4995 79.7113C80.0456 77.4362 80.731 76.7905 80.8692 76.5367C81.4051 75.5523 80.9342 74.5669 79.8031 74.3058C79.5822 74.2549 77.6212 74.0376 75.4453 73.823C72.9985 73.5818 71.385 73.3954 71.2163 73.3346C71.0663 73.2804 70.8124 73.1154 70.6523 72.9679C70.379 72.7161 70.2613 72.473 68.7321 69.0019C67.8362 66.9682 67.0393 65.18 66.9615 65.0282C66.4157 63.9648 65.2019 63.7643 64.4367 64.611C64.157 64.9206 64.2502 64.7224 62.3557 69.0341C60.8726 72.4093 60.7543 72.6539 60.4702 72.9297C60.3035 73.0915 60.0369 73.2714 59.8777 73.3294C59.6856 73.3994 58.1855 73.5756 55.4212 73.8528C50.9876 74.2974 50.9591 74.3022 50.4988 74.6912C50.0166 75.0986 49.8847 75.8513 50.191 76.4478C50.3904 76.8361 50.6097 77.0452 53.895 79.9802C55.3987 81.3236 56.6786 82.4788 56.7391 82.5475C56.9313 82.7651 57.1186 83.2709 57.1238 83.5854C57.1264 83.7537 56.7371 85.6928 56.2517 87.9279C55.7692 90.1491 55.3747 92.0735 55.3749 92.2044C55.3774 93.3023 56.3022 93.9937 57.3725 93.6965ZM111.534 99.9987V50.7383H123.757H135.979V87.7479V124.758H150.679H165.378V137.008V149.259H138.456H111.534V99.9987Z" fill="#3C434A"/>
</g>
<defs>
<clipPath id="clip0_604_26">
<rect width="200" height="200" fill="white"/>
</clipPath>
</defs>
</svg>
